# xmcd
#
# Track frame offsets: 
#        150
#        10711
#        21256
#        33891
#        45388
#        57434
#        67193
#        76025
#        87386
#        98508
#        109946
#        120829
#        131776
#        143581
#        155341
#        167501
#        177359
#        187037
#        198278
#        208562
#        218799
#        228352
#        238611
#        251998
#        265828
#
# Disc length: 3715 seconds
#
# Revision: 0
# Processed by: cddbd v1.5.2PL0 Copyright (c) Steve Scherf et al.
# Submitted via: ExactAudioCopy v1.1
#
DISCID=4e0e8119
DTITLE=George Jones - Big Box Of George Jones_CD6
DYEAR=2015
DGENRE=Country
TTITLE0=The Good Ole Bible
TTITLE1=Half As Much
TTITLE2=Big Beaver
TTITLE3=We'll Understand It
TTITLE4=Play It Cool
TTITLE5=What Am I Worth?
TTITLE6=That's The Way I Feel
TTITLE7=Running Bear
TTITLE8=Window Shopping
TTITLE9=Nothing Can Stop Me
TTITLE10=I'm Ragged But I'm Right
TTITLE11=The Precious Jewel
TTITLE12=Heartaches By The Number
TTITLE13=The Warm Red Wine
TTITLE14=Oh Lonesome Me
TTITLE15=Sweet Dreams
TTITLE16=Did I Ever Tell You?
TTITLE17=Nothing Can Stop My Love
TTITLE18=You're Gonna Change
TTITLE19=Don't Stop The Music
TTITLE20=Hold Everything
TTITLE21=Yearning (To Kiss You)
TTITLE22=Time Changes Everything
TTITLE23=Family Bible
TTITLE24=I Don't Hear You
EXTD=
EXTT0=
EXTT1=
EXTT2=
EXTT3=
EXTT4=
EXTT5=
EXTT6=
EXTT7=
EXTT8=
EXTT9=
EXTT10=
EXTT11=
EXTT12=
EXTT13=
EXTT14=
EXTT15=
EXTT16=
EXTT17=
EXTT18=
EXTT19=
EXTT20=
EXTT21=
EXTT22=
EXTT23=
EXTT24=
PLAYORDER=
